<svg width="680" height="1050" viewBox="0 0 680 1050" fill="none" xmlns="http://www.w3.org/2000/svg">
  <rect width="680" height="1050" fill="#2d8a2d"/>
  
  <!-- Field lines -->
  <g stroke="rgba(255,255,255,0.3)" stroke-width="2" fill="none">
    <!-- Outer border -->
    <rect x="50" y="50" width="580" height="950"/>
    
    <!-- Center line -->
    <line x1="50" y1="525" x2="630" y2="525"/>
    
    <!-- Center circle -->
    <circle cx="340" cy="525" r="91.5"/>
    <circle cx="340" cy="525" r="2" fill="rgba(255,255,255,0.3)"/>
    
    <!-- Penalty areas -->
    <rect x="195" y="50" width="290" height="165"/>
    <rect x="195" y="835" width="290" height="165"/>
    
    <!-- Goal areas -->
    <rect x="255" y="50" width="170" height="55"/>
    <rect x="255" y="945" width="170" height="55"/>
    
    <!-- Corner arcs -->
    <path d="M50,80 A30,30 0 0,1 80,50"/>
    <path d="M630,50 A30,30 0 0,1 600,80"/>
    <path d="M50,970 A30,30 0 0,0 80,1000"/>
    <path d="M630,1000 A30,30 0 0,0 600,970"/>
  </g>
</svg>
